<?xml version="1.0" standalone="no"?><!DOCTYPE svg PUBLIC "-//W3C//DTD SVG 1.1//EN" "http://www.w3.org/Graphics/SVG/1.1/DTD/svg11.dtd"><svg t="1553656345217" class="icon" style="" viewBox="0 0 1024 1024" version="1.1" xmlns="http://www.w3.org/2000/svg" p-id="824" xmlns:xlink="http://www.w3.org/1999/xlink" width="400" height="400"><defs><style type="text/css"></style></defs><path d="M170.666667 213.333333a42.666667 42.666667 0 1 1 0-85.333333h682.666666a42.666667 42.666667 0 0 1 0 85.333333H170.666667z m0 344.021334a42.666667 42.666667 0 0 1 0-85.333334h389.333333a42.666667 42.666667 0 0 1 0 85.333334H170.666667z m0 341.333333a42.666667 42.666667 0 0 1 0-85.333333h682.666666a42.666667 42.666667 0 0 1 0 85.333333H170.666667zM860.928 308.437333a21.333333 21.333333 0 0 1 36.437333 15.061334v379.733333a21.333333 21.333333 0 0 1-36.437333 15.061333l-174.762667-174.762666a42.666667 42.666667 0 0 1 0-60.330667l174.762667-174.762667z" p-id="825" fill="#ffffff"></path></svg>